<svg width="248" height="38" viewBox="0 0 248 38" fill="none" xmlns="http://www.w3.org/2000/svg">
    <path
        d="M52.9342 26.2307L6.24156 26.2307C2.79444 26.2307 -5.16922e-07 25.0664 0 21.6124C4.62509e-07 18.1585 2.79444 16.9941 6.24156 16.9941L52.9342 16.9941C56.3813 16.9941 59.1757 18.1585 59.1757 21.6124C59.1757 25.0664 56.3813 26.2307 52.9342 26.2307Z"
        fill="#E26448" />
    <path
        d="M55.911 16.1477L3.26477 16.1477V16.1477C3.26477 9.23982 8.85365 3.63989 15.7479 3.63989L43.4279 3.6399C50.3221 3.6399 55.911 9.23983 55.911 16.1477V16.1477Z"
        fill="#FFB800" />
    <path
        d="M19.5795 8.2591C20.1694 8.2591 20.6475 7.78 20.6475 7.189C20.6475 6.598 20.1694 6.1189 19.5795 6.1189C18.9897 6.1189 18.5115 6.598 18.5115 7.189C18.5115 7.78 18.9897 8.2591 19.5795 8.2591Z"
        fill="black" fill-opacity="0.35" />
    <path
        d="M10.4122 12.8986C11.0021 12.8986 11.4802 12.4195 11.4802 11.8285C11.4802 11.2375 11.0021 10.7584 10.4122 10.7584C9.8224 10.7584 9.34424 11.2375 9.34424 11.8285C9.34424 12.4195 9.8224 12.8986 10.4122 12.8986Z"
        fill="black" fill-opacity="0.35" />
    <path
        d="M37.1744 8.2591C37.7643 8.2591 38.2424 7.78 38.2424 7.189C38.2424 6.598 37.7643 6.1189 37.1744 6.1189C36.5846 6.1189 36.1064 6.598 36.1064 7.189C36.1064 7.78 36.5846 8.2591 37.1744 8.2591Z"
        fill="black" fill-opacity="0.35" />
    <path
        d="M27.3631 12.8986C27.9529 12.8986 28.4311 12.4195 28.4311 11.8285C28.4311 11.2375 27.9529 10.7584 27.3631 10.7584C26.7733 10.7584 26.2951 11.2375 26.2951 11.8285C26.2951 12.4195 26.7733 12.8986 27.3631 12.8986Z"
        fill="black" fill-opacity="0.35" />
    <path
        d="M49.9445 9.89376C50.5343 9.89376 51.0124 9.41466 51.0124 8.82365C51.0124 8.23264 50.5343 7.75354 49.9445 7.75354C49.3546 7.75354 48.8765 8.23264 48.8765 8.82365C48.8765 9.41466 49.3546 9.89376 49.9445 9.89376Z"
        fill="black" fill-opacity="0.35" />
    <path
        d="M44.3135 13.9687C44.9033 13.9687 45.3815 13.4896 45.3815 12.8986C45.3815 12.3076 44.9033 11.8285 44.3135 11.8285C43.7236 11.8285 43.2455 12.3076 43.2455 12.8986C43.2455 13.4896 43.7236 13.9687 44.3135 13.9687Z"
        fill="black" fill-opacity="0.35" />
    <path
        d="M55.911 27.0773L3.26477 27.0773V27.0773C3.26477 32.6723 8.85365 35 15.7479 35L43.4278 35C50.3221 35 55.911 32.6723 55.911 27.0773V27.0773V27.0773Z"
        fill="#FFB800" />
    <path
        d="M78.072 9.18182H83.7609L89.7695 23.8409H90.0252L96.0337 9.18182H101.723V31H97.2482V16.799H97.0671L91.4207 30.8935H88.3739L82.7276 16.7457H82.5465V31H78.072V9.18182ZM112.895 31.3196C111.212 31.3196 109.763 30.9787 108.549 30.2969C107.341 29.608 106.411 28.6349 105.758 27.3778C105.104 26.1136 104.777 24.6186 104.777 22.8928C104.777 21.2095 105.104 19.7322 105.758 18.4609C106.411 17.1896 107.331 16.1989 108.517 15.4886C109.71 14.7784 111.109 14.4233 112.714 14.4233C113.794 14.4233 114.799 14.5973 115.729 14.9453C116.667 15.2862 117.483 15.8011 118.179 16.4901C118.883 17.179 119.429 18.0455 119.82 19.0895C120.211 20.1264 120.406 21.3409 120.406 22.733V23.9794H106.589V21.1669H116.134C116.134 20.5135 115.992 19.9347 115.708 19.4304C115.424 18.9261 115.03 18.532 114.525 18.2479C114.028 17.9567 113.449 17.8111 112.789 17.8111C112.1 17.8111 111.489 17.9709 110.956 18.2905C110.431 18.603 110.019 19.0256 109.721 19.5582C109.422 20.0838 109.27 20.6697 109.263 21.3161V23.9901C109.263 24.7997 109.412 25.4993 109.71 26.0888C110.015 26.6783 110.445 27.1328 110.999 27.4524C111.553 27.772 112.21 27.9318 112.97 27.9318C113.474 27.9318 113.936 27.8608 114.355 27.7188C114.774 27.5767 115.133 27.3636 115.431 27.0795C115.729 26.7955 115.956 26.4474 116.113 26.0355L120.31 26.3125C120.097 27.321 119.66 28.2017 119 28.9545C118.346 29.7003 117.501 30.2827 116.464 30.7017C115.434 31.1136 114.245 31.3196 112.895 31.3196ZM128.034 31.3089C126.99 31.3089 126.059 31.1278 125.243 30.7656C124.426 30.3963 123.78 29.853 123.304 29.1357C122.835 28.4112 122.601 27.5092 122.601 26.4297C122.601 25.5206 122.768 24.7571 123.101 24.1392C123.435 23.5213 123.89 23.0241 124.465 22.6477C125.04 22.2713 125.694 21.9872 126.425 21.7955C127.164 21.6037 127.938 21.4688 128.748 21.3906C129.699 21.2912 130.466 21.1989 131.049 21.1136C131.631 21.0213 132.054 20.8864 132.317 20.7088C132.579 20.5312 132.711 20.2685 132.711 19.9205V19.8565C132.711 19.1818 132.498 18.6598 132.071 18.2905C131.652 17.9212 131.056 17.7365 130.282 17.7365C129.465 17.7365 128.815 17.9176 128.332 18.2798C127.849 18.6349 127.53 19.0824 127.373 19.6222L123.176 19.2812C123.389 18.2869 123.808 17.4276 124.433 16.7031C125.058 15.9716 125.864 15.4105 126.851 15.0199C127.846 14.6222 128.996 14.4233 130.303 14.4233C131.212 14.4233 132.082 14.5298 132.913 14.7429C133.751 14.956 134.493 15.2862 135.14 15.7337C135.793 16.1811 136.308 16.7564 136.684 17.4595C137.061 18.1555 137.249 18.9901 137.249 19.9631V31H132.945V28.7308H132.817C132.554 29.2422 132.203 29.6932 131.763 30.0838C131.322 30.4673 130.793 30.7692 130.175 30.9893C129.557 31.2024 128.844 31.3089 128.034 31.3089ZM129.334 28.1768C130.001 28.1768 130.591 28.0455 131.102 27.7827C131.613 27.5128 132.015 27.1506 132.306 26.696C132.597 26.2415 132.743 25.7266 132.743 25.1513V23.4148C132.601 23.5071 132.405 23.5923 132.157 23.6705C131.915 23.7415 131.642 23.8089 131.336 23.8729C131.031 23.9297 130.726 23.983 130.42 24.0327C130.115 24.0753 129.838 24.1143 129.589 24.1499C129.057 24.228 128.591 24.3523 128.194 24.5227C127.796 24.6932 127.487 24.924 127.267 25.2152C127.047 25.4993 126.937 25.8544 126.937 26.2805C126.937 26.8984 127.16 27.3707 127.608 27.6974C128.062 28.017 128.638 28.1768 129.334 28.1768ZM145.308 9.18182V31H140.77V9.18182H145.308ZM160.865 15.4567C160.78 14.5973 160.414 13.9297 159.768 13.4538C159.121 12.978 158.244 12.7401 157.136 12.7401C156.383 12.7401 155.748 12.8466 155.229 13.0597C154.711 13.2656 154.313 13.5533 154.036 13.9226C153.766 14.2919 153.631 14.7109 153.631 15.1797C153.617 15.5703 153.699 15.9112 153.876 16.2024C154.061 16.4936 154.313 16.7457 154.633 16.9588C154.952 17.1648 155.322 17.3459 155.741 17.5021C156.16 17.6513 156.607 17.7791 157.083 17.8857L159.043 18.3544C159.995 18.5675 160.869 18.8516 161.664 19.2067C162.459 19.5618 163.148 19.9986 163.731 20.517C164.313 21.0355 164.764 21.6463 165.084 22.3494C165.41 23.0526 165.577 23.8587 165.584 24.7678C165.577 26.103 165.236 27.2607 164.562 28.2408C163.894 29.2138 162.928 29.9702 161.664 30.5099C160.407 31.0426 158.891 31.3089 157.115 31.3089C155.354 31.3089 153.82 31.0391 152.513 30.4993C151.213 29.9595 150.197 29.1605 149.466 28.1023C148.741 27.0369 148.361 25.7195 148.326 24.1499H152.79C152.839 24.8814 153.049 25.4922 153.418 25.9822C153.795 26.4652 154.295 26.831 154.92 27.0795C155.552 27.321 156.266 27.4418 157.062 27.4418C157.843 27.4418 158.521 27.3281 159.097 27.1009C159.679 26.8736 160.13 26.5575 160.45 26.1527C160.769 25.7479 160.929 25.2827 160.929 24.7571C160.929 24.267 160.783 23.8551 160.492 23.5213C160.208 23.1875 159.789 22.9034 159.235 22.669C158.688 22.4347 158.017 22.2216 157.222 22.0298L154.846 21.4332C153.006 20.9858 151.554 20.2862 150.489 19.3345C149.423 18.3828 148.894 17.1009 148.901 15.4886C148.894 14.1676 149.246 13.0135 149.956 12.0263C150.673 11.0391 151.657 10.2685 152.907 9.71449C154.157 9.16051 155.577 8.88352 157.168 8.88352C158.788 8.88352 160.201 9.16051 161.408 9.71449C162.623 10.2685 163.567 11.0391 164.242 12.0263C164.917 13.0135 165.265 14.157 165.286 15.4567H160.865ZM173.14 21.5398V31H168.602V9.18182H173.013V17.5234H173.204C173.574 16.5575 174.17 15.8011 174.994 15.2543C175.818 14.7003 176.851 14.4233 178.094 14.4233C179.231 14.4233 180.221 14.6719 181.067 15.169C181.919 15.6591 182.579 16.3658 183.048 17.2891C183.524 18.2053 183.758 19.3026 183.751 20.581V31H179.213V21.3906C179.22 20.3821 178.964 19.5973 178.446 19.0362C177.934 18.4751 177.217 18.1946 176.294 18.1946C175.676 18.1946 175.129 18.326 174.653 18.5888C174.184 18.8516 173.815 19.2351 173.545 19.7393C173.282 20.2365 173.147 20.8366 173.14 21.5398ZM187.323 31V14.6364H191.861V31H187.323ZM189.603 12.527C188.928 12.527 188.349 12.3033 187.866 11.8558C187.39 11.4013 187.152 10.858 187.152 10.2259C187.152 9.60085 187.39 9.06463 187.866 8.61719C188.349 8.16264 188.928 7.93537 189.603 7.93537C190.277 7.93537 190.853 8.16264 191.328 8.61719C191.811 9.06463 192.053 9.60085 192.053 10.2259C192.053 10.858 191.811 11.4013 191.328 11.8558C190.853 12.3033 190.277 12.527 189.603 12.527ZM195.497 37.1364V14.6364H199.971V17.3849H200.173C200.372 16.9446 200.66 16.4972 201.036 16.0426C201.42 15.581 201.917 15.1974 202.528 14.892C203.146 14.5795 203.913 14.4233 204.829 14.4233C206.022 14.4233 207.123 14.7358 208.132 15.3608C209.14 15.9787 209.946 16.9126 210.55 18.1626C211.154 19.4055 211.455 20.9645 211.455 22.8395C211.455 24.6648 211.161 26.206 210.571 27.4631C209.989 28.7131 209.193 29.6612 208.185 30.3075C207.183 30.9467 206.061 31.2663 204.818 31.2663C203.938 31.2663 203.188 31.1207 202.57 30.8295C201.96 30.5384 201.459 30.1726 201.068 29.7322C200.678 29.2848 200.379 28.8338 200.173 28.3793H200.035V37.1364H195.497ZM199.939 22.8182C199.939 23.7912 200.074 24.6399 200.344 25.3643C200.614 26.0888 201.004 26.6534 201.516 27.0582C202.027 27.456 202.649 27.6548 203.38 27.6548C204.119 27.6548 204.744 27.4524 205.255 27.0476C205.766 26.6357 206.154 26.0675 206.416 25.343C206.686 24.6115 206.821 23.7699 206.821 22.8182C206.821 21.8736 206.69 21.0426 206.427 20.3253C206.164 19.608 205.777 19.0469 205.266 18.642C204.754 18.2372 204.126 18.0348 203.38 18.0348C202.641 18.0348 202.016 18.2301 201.505 18.6207C201.001 19.0114 200.614 19.5653 200.344 20.2827C200.074 21 199.939 21.8452 199.939 22.8182Z"
        fill="black" />
</svg>