<svg width="248" height="35" viewBox="0 0 248 35" fill="none" xmlns="http://www.w3.org/2000/svg">
    <path
        d="M52.9342 26.2307L6.24156 26.2307C2.79444 26.2307 -5.16922e-07 25.0664 0 21.6124C4.62509e-07 18.1585 2.79444 16.9941 6.24156 16.9941L52.9342 16.9941C56.3813 16.9941 59.1757 18.1585 59.1757 21.6124C59.1757 25.0664 56.3813 26.2307 52.9342 26.2307Z"
        fill="#E26448" />
    <path
        d="M55.911 16.1477L3.26477 16.1477V16.1477C3.26477 9.23982 8.85365 3.63989 15.7479 3.63989L43.4279 3.6399C50.3221 3.6399 55.911 9.23983 55.911 16.1477V16.1477Z"
        fill="#FFB800" />
    <path
        d="M19.5795 8.2591C20.1694 8.2591 20.6475 7.78 20.6475 7.189C20.6475 6.598 20.1694 6.1189 19.5795 6.1189C18.9897 6.1189 18.5115 6.598 18.5115 7.189C18.5115 7.78 18.9897 8.2591 19.5795 8.2591Z"
        fill="black" fill-opacity="0.35" />
    <path
        d="M10.4122 12.8986C11.0021 12.8986 11.4802 12.4195 11.4802 11.8285C11.4802 11.2375 11.0021 10.7584 10.4122 10.7584C9.8224 10.7584 9.34424 11.2375 9.34424 11.8285C9.34424 12.4195 9.8224 12.8986 10.4122 12.8986Z"
        fill="black" fill-opacity="0.35" />
    <path
        d="M37.1744 8.2591C37.7643 8.2591 38.2424 7.78 38.2424 7.189C38.2424 6.598 37.7643 6.1189 37.1744 6.1189C36.5846 6.1189 36.1064 6.598 36.1064 7.189C36.1064 7.78 36.5846 8.2591 37.1744 8.2591Z"
        fill="black" fill-opacity="0.35" />
    <path
        d="M27.3631 12.8986C27.9529 12.8986 28.4311 12.4195 28.4311 11.8285C28.4311 11.2375 27.9529 10.7584 27.3631 10.7584C26.7733 10.7584 26.2951 11.2375 26.2951 11.8285C26.2951 12.4195 26.7733 12.8986 27.3631 12.8986Z"
        fill="black" fill-opacity="0.35" />
    <path
        d="M49.9445 9.89376C50.5343 9.89376 51.0124 9.41466 51.0124 8.82365C51.0124 8.23264 50.5343 7.75354 49.9445 7.75354C49.3546 7.75354 48.8765 8.23264 48.8765 8.82365C48.8765 9.41466 49.3546 9.89376 49.9445 9.89376Z"
        fill="black" fill-opacity="0.35" />
    <path
        d="M44.3135 13.9687C44.9033 13.9687 45.3815 13.4896 45.3815 12.8986C45.3815 12.3076 44.9033 11.8285 44.3135 11.8285C43.7236 11.8285 43.2455 12.3076 43.2455 12.8986C43.2455 13.4896 43.7236 13.9687 44.3135 13.9687Z"
        fill="black" fill-opacity="0.35" />
    <path
        d="M55.911 27.0773L3.26477 27.0773V27.0773C3.26477 32.6723 8.85365 35 15.7479 35L43.4278 35C50.3221 35 55.911 32.6723 55.911 27.0773V27.0773V27.0773Z"
        fill="#FFB800" />
    <path
        d="M78.072 9.18182H83.7609L89.7695 23.8409H90.0252L96.0337 9.18182H101.723V31H97.2482V16.799H97.0671L91.4207 30.8935H88.3739L82.7276 16.7457H82.5465V31H78.072V9.18182ZM112.895 31.3196C111.212 31.3196 109.763 30.9787 108.549 30.2969C107.341 29.608 106.411 28.6349 105.758 27.3778C105.104 26.1136 104.777 24.6186 104.777 22.8928C104.777 21.2095 105.104 19.7322 105.758 18.4609C106.411 17.1896 107.331 16.1989 108.517 15.4886C109.71 14.7784 111.109 14.4233 112.714 14.4233C113.794 14.4233 114.799 14.5973 115.729 14.9453C116.667 15.2862 117.483 15.8011 118.179 16.4901C118.883 17.179 119.429 18.0455 119.82 19.0895C120.211 20.1264 120.406 21.3409 120.406 22.733V23.9794H106.589V21.1669H116.134C116.134 20.5135 115.992 19.9347 115.708 19.4304C115.424 18.9261 115.03 18.532 114.525 18.2479C114.028 17.9567 113.449 17.8111 112.789 17.8111C112.1 17.8111 111.489 17.9709 110.956 18.2905C110.431 18.603 110.019 19.0256 109.721 19.5582C109.422 20.0838 109.27 20.6697 109.263 21.3161V23.9901C109.263 24.7997 109.412 25.4993 109.71 26.0888C110.015 26.6783 110.445 27.1328 110.999 27.4524C111.553 27.772 112.21 27.9318 112.97 27.9318C113.474 27.9318 113.936 27.8608 114.355 27.7188C114.774 27.5767 115.133 27.3636 115.431 27.0795C115.729 26.7955 115.956 26.4474 116.113 26.0355L120.31 26.3125C120.097 27.321 119.66 28.2017 119 28.9545C118.346 29.7003 117.501 30.2827 116.464 30.7017C115.434 31.1136 114.245 31.3196 112.895 31.3196ZM128.034 31.3089C126.99 31.3089 126.059 31.1278 125.243 30.7656C124.426 30.3963 123.78 29.853 123.304 29.1357C122.835 28.4112 122.601 27.5092 122.601 26.4297C122.601 25.5206 122.768 24.7571 123.101 24.1392C123.435 23.5213 123.89 23.0241 124.465 22.6477C125.04 22.2713 125.694 21.9872 126.425 21.7955C127.164 21.6037 127.938 21.4688 128.748 21.3906C129.699 21.2912 130.466 21.1989 131.049 21.1136C131.631 21.0213 132.054 20.8864 132.317 20.7088C132.579 20.5312 132.711 20.2685 132.711 19.9205V19.8565C132.711 19.1818 132.498 18.6598 132.071 18.2905C131.652 17.9212 131.056 17.7365 130.282 17.7365C129.465 17.7365 128.815 17.9176 128.332 18.2798C127.849 18.6349 127.53 19.0824 127.373 19.6222L123.176 19.2812C123.389 18.2869 123.808 17.4276 124.433 16.7031C125.058 15.9716 125.864 15.4105 126.851 15.0199C127.846 14.6222 128.996 14.4233 130.303 14.4233C131.212 14.4233 132.082 14.5298 132.913 14.7429C133.751 14.956 134.493 15.2862 135.14 15.7337C135.793 16.1811 136.308 16.7564 136.684 17.4595C137.061 18.1555 137.249 18.9901 137.249 19.9631V31H132.945V28.7308H132.817C132.554 29.2422 132.203 29.6932 131.763 30.0838C131.322 30.4673 130.793 30.7692 130.175 30.9893C129.557 31.2024 128.844 31.3089 128.034 31.3089ZM129.334 28.1768C130.001 28.1768 130.591 28.0455 131.102 27.7827C131.613 27.5128 132.015 27.1506 132.306 26.696C132.597 26.2415 132.743 25.7266 132.743 25.1513V23.4148C132.601 23.5071 132.405 23.5923 132.157 23.6705C131.915 23.7415 131.642 23.8089 131.336 23.8729C131.031 23.9297 130.726 23.983 130.42 24.0327C130.115 24.0753 129.838 24.1143 129.589 24.1499C129.057 24.228 128.591 24.3523 128.194 24.5227C127.796 24.6932 127.487 24.924 127.267 25.2152C127.047 25.4993 126.937 25.8544 126.937 26.2805C126.937 26.8984 127.16 27.3707 127.608 27.6974C128.062 28.017 128.638 28.1768 129.334 28.1768ZM145.308 9.18182V31H140.77V9.18182H145.308ZM160.865 15.4567C160.78 14.5973 160.414 13.9297 159.768 13.4538C159.121 12.978 158.244 12.7401 157.136 12.7401C156.383 12.7401 155.748 12.8466 155.229 13.0597C154.711 13.2656 154.313 13.5533 154.036 13.9226C153.766 14.2919 153.631 14.7109 153.631 15.1797C153.617 15.5703 153.699 15.9112 153.876 16.2024C154.061 16.4936 154.313 16.7457 154.633 16.9588C154.952 17.1648 155.322 17.3459 155.741 17.5021C156.16 17.6513 156.607 17.7791 157.083 17.8857L159.043 18.3544C159.995 18.5675 160.869 18.8516 161.664 19.2067C162.459 19.5618 163.148 19.9986 163.731 20.517C164.313 21.0355 164.764 21.6463 165.084 22.3494C165.41 23.0526 165.577 23.8587 165.584 24.7678C165.577 26.103 165.236 27.2607 164.562 28.2408C163.894 29.2138 162.928 29.9702 161.664 30.5099C160.407 31.0426 158.891 31.3089 157.115 31.3089C155.354 31.3089 153.82 31.0391 152.513 30.4993C151.213 29.9595 150.197 29.1605 149.466 28.1023C148.741 27.0369 148.361 25.7195 148.326 24.1499H152.79C152.839 24.8814 153.049 25.4922 153.418 25.9822C153.795 26.4652 154.295 26.831 154.92 27.0795C155.552 27.321 156.266 27.4418 157.062 27.4418C157.843 27.4418 158.521 27.3281 159.097 27.1009C159.679 26.8736 160.13 26.5575 160.45 26.1527C160.769 25.7479 160.929 25.2827 160.929 24.7571C160.929 24.267 160.783 23.8551 160.492 23.5213C160.208 23.1875 159.789 22.9034 159.235 22.669C158.688 22.4347 158.017 22.2216 157.222 22.0298L154.846 21.4332C153.006 20.9858 151.554 20.2862 150.489 19.3345C149.423 18.3828 148.894 17.1009 148.901 15.4886C148.894 14.1676 149.246 13.0135 149.956 12.0263C150.673 11.0391 151.657 10.2685 152.907 9.71449C154.157 9.16051 155.577 8.88352 157.168 8.88352C158.788 8.88352 160.201 9.16051 161.408 9.71449C162.623 10.2685 163.567 11.0391 164.242 12.0263C164.917 13.0135 165.265 14.157 165.286 15.4567H160.865ZM173.14 21.5398V31H168.602V9.18182H173.013V17.5234H173.204C173.574 16.5575 174.17 15.8011 174.994 15.2543C175.818 14.7003 176.851 14.4233 178.094 14.4233C179.231 14.4233 180.221 14.6719 181.067 15.169C181.919 15.6591 182.579 16.3658 183.048 17.2891C183.524 18.2053 183.758 19.3026 183.751 20.581V31H179.213V21.3906C179.22 20.3821 178.964 19.5973 178.446 19.0362C177.934 18.4751 177.217 18.1946 176.294 18.1946C175.676 18.1946 175.129 18.326 174.653 18.5888C174.184 18.8516 173.815 19.2351 173.545 19.7393C173.282 20.2365 173.147 20.8366 173.14 21.5398ZM191.989 31.3089C190.945 31.3089 190.014 31.1278 189.198 30.7656C188.381 30.3963 187.735 29.853 187.259 29.1357C186.79 28.4112 186.556 27.5092 186.556 26.4297C186.556 25.5206 186.723 24.7571 187.056 24.1392C187.39 23.5213 187.845 23.0241 188.42 22.6477C188.995 22.2713 189.649 21.9872 190.38 21.7955C191.119 21.6037 191.893 21.4688 192.703 21.3906C193.654 21.2912 194.421 21.1989 195.004 21.1136C195.586 21.0213 196.009 20.8864 196.272 20.7088C196.534 20.5312 196.666 20.2685 196.666 19.9205V19.8565C196.666 19.1818 196.453 18.6598 196.027 18.2905C195.608 17.9212 195.011 17.7365 194.237 17.7365C193.42 17.7365 192.77 17.9176 192.287 18.2798C191.804 18.6349 191.485 19.0824 191.328 19.6222L187.131 19.2812C187.344 18.2869 187.763 17.4276 188.388 16.7031C189.013 15.9716 189.819 15.4105 190.806 15.0199C191.801 14.6222 192.951 14.4233 194.258 14.4233C195.167 14.4233 196.037 14.5298 196.868 14.7429C197.706 14.956 198.448 15.2862 199.095 15.7337C199.748 16.1811 200.263 16.7564 200.639 17.4595C201.016 18.1555 201.204 18.9901 201.204 19.9631V31H196.9V28.7308H196.772C196.51 29.2422 196.158 29.6932 195.718 30.0838C195.277 30.4673 194.748 30.7692 194.13 30.9893C193.512 31.2024 192.799 31.3089 191.989 31.3089ZM193.289 28.1768C193.956 28.1768 194.546 28.0455 195.057 27.7827C195.568 27.5128 195.97 27.1506 196.261 26.696C196.552 26.2415 196.698 25.7266 196.698 25.1513V23.4148C196.556 23.5071 196.36 23.5923 196.112 23.6705C195.87 23.7415 195.597 23.8089 195.291 23.8729C194.986 23.9297 194.681 23.983 194.375 24.0327C194.07 24.0753 193.793 24.1143 193.544 24.1499C193.012 24.228 192.546 24.3523 192.149 24.5227C191.751 24.6932 191.442 24.924 191.222 25.2152C191.002 25.4993 190.892 25.8544 190.892 26.2805C190.892 26.8984 191.115 27.3707 191.563 27.6974C192.017 28.017 192.593 28.1768 193.289 28.1768ZM204.725 31V14.6364H209.125V17.4915H209.295C209.594 16.4759 210.094 15.7088 210.798 15.1903C211.501 14.6648 212.31 14.402 213.227 14.402C213.454 14.402 213.699 14.4162 213.962 14.4446C214.224 14.473 214.455 14.5121 214.654 14.5618V18.5888C214.441 18.5249 214.146 18.468 213.77 18.4183C213.393 18.3686 213.049 18.3438 212.736 18.3438C212.069 18.3438 211.472 18.4893 210.947 18.7805C210.428 19.0646 210.016 19.4624 209.711 19.9737C209.413 20.4851 209.263 21.0746 209.263 21.7422V31H204.725ZM223.696 31.3196C222.013 31.3196 220.564 30.9787 219.35 30.2969C218.142 29.608 217.212 28.6349 216.558 27.3778C215.905 26.1136 215.578 24.6186 215.578 22.8928C215.578 21.2095 215.905 19.7322 216.558 18.4609C217.212 17.1896 218.132 16.1989 219.318 15.4886C220.511 14.7784 221.91 14.4233 223.515 14.4233C224.595 14.4233 225.6 14.5973 226.53 14.9453C227.467 15.2862 228.284 15.8011 228.98 16.4901C229.683 17.179 230.23 18.0455 230.621 19.0895C231.011 20.1264 231.207 21.3409 231.207 22.733V23.9794H217.389V21.1669H226.935C226.935 20.5135 226.793 19.9347 226.509 19.4304C226.225 18.9261 225.83 18.532 225.326 18.2479C224.829 17.9567 224.25 17.8111 223.59 17.8111C222.901 17.8111 222.29 17.9709 221.757 18.2905C221.232 18.603 220.82 19.0256 220.521 19.5582C220.223 20.0838 220.07 20.6697 220.063 21.3161V23.9901C220.063 24.7997 220.212 25.4993 220.511 26.0888C220.816 26.6783 221.246 27.1328 221.8 27.4524C222.354 27.772 223.011 27.9318 223.771 27.9318C224.275 27.9318 224.737 27.8608 225.156 27.7188C225.575 27.5767 225.933 27.3636 226.232 27.0795C226.53 26.7955 226.757 26.4474 226.913 26.0355L231.111 26.3125C230.898 27.321 230.461 28.2017 229.801 28.9545C229.147 29.7003 228.302 30.2827 227.265 30.7017C226.235 31.1136 225.046 31.3196 223.696 31.3196Z"
        fill="black" />
</svg>